<svg xmlns="http://www.w3.org/2000/svg" viewBox="0 0 1180 520" width="1180" height="520" role="img" aria-labelledby="t d"><title id="t">Values tethered to the page they came from</title><desc id="d">A contract page with two highlighted clauses. Curved threads join each highlight to a named field holding the value, the verbatim snippet and the page rectangle. A third field reads Not Stated and has no thread, because there is nothing on the page to anchor it to.</desc><defs><marker id="head" viewBox="0 0 10 10" refX="9" refY="5" markerWidth="6" markerHeight="6" orient="auto-start-reverse"><path d="M 0 0 L 10 5 L 0 10 z" fill="context-stroke"/></marker></defs><rect x="64" y="52" width="306" height="428" rx="3" fill="#ffffff" stroke="#d8dae0" stroke-width="1"/><text x="84" y="88" font-family="ui-sans-serif,-apple-system,BlinkMacSystemFont,'Segoe UI',Roboto,'Helvetica Neue',sans-serif" font-size="9.5" font-weight="600" fill="#6c7280" letter-spacing="1.1">SOFTWARE LICENCE AGREEMENT</text><line x1="84" y1="98" x2="350" y2="98" stroke="#dcdee4" stroke-width="1"/><rect x="84" y="123" width="258" height="6.5" rx="3" fill="#1b1c21" opacity="0.17"/><rect x="84" y="147" width="240" height="6.5" rx="3" fill="#1b1c21" opacity="0.17"/><rect x="84" y="171" width="262" height="6.5" rx="3" fill="#1b1c21" opacity="0.17"/><rect x="84" y="195" width="198" height="6.5" rx="3" fill="#1b1c21" opacity="0.17"/><rect x="80" y="214" width="274" height="17" rx="2" fill="#ffd35a" opacity="0.55"/><rect x="84" y="219" width="251" height="6.5" rx="3" fill="#1b1c21" opacity="0.72"/><rect x="84" y="247" width="233" height="6.5" rx="3" fill="#1b1c21" opacity="0.17"/><rect x="84" y="271" width="259" height="6.5" rx="3" fill="#1b1c21" opacity="0.17"/><rect x="84" y="295" width="176" height="6.5" rx="3" fill="#1b1c21" opacity="0.17"/><rect x="84" y="319" width="254" height="6.5" rx="3" fill="#1b1c21" opacity="0.17"/><rect x="84" y="343" width="262" height="6.5" rx="3" fill="#1b1c21" opacity="0.17"/><rect x="84" y="367" width="236" height="6.5" rx="3" fill="#1b1c21" opacity="0.17"/><rect x="80" y="386" width="274" height="17" rx="2" fill="#ffd35a" opacity="0.55"/><rect x="84" y="391" width="205" height="6.5" rx="3" fill="#1b1c21" opacity="0.72"/><rect x="84" y="419" width="258" height="6.5" rx="3" fill="#1b1c21" opacity="0.17"/><rect x="84" y="443" width="219" height="6.5" rx="3" fill="#1b1c21" opacity="0.17"/><text x="217.0" y="462" font-family="ui-monospace,'Cascadia Code','SF Mono',Menlo,Consolas,monospace" font-size="9.5" font-weight="400" fill="#9aa0ab" text-anchor="middle">page 2 of 9</text><line x1="566" y1="70" x2="1136" y2="70" stroke="#e2e4e9" stroke-width="1"/><text x="592" y="92" font-family="ui-sans-serif,-apple-system,BlinkMacSystemFont,'Segoe UI',Roboto,'Helvetica Neue',sans-serif" font-size="9.5" font-weight="600" fill="#6c7280" letter-spacing="1.3">LICENCE FEE</text><text x="592" y="124" font-family="ui-sans-serif,-apple-system,BlinkMacSystemFont,'Segoe UI',Roboto,'Helvetica Neue',sans-serif" font-size="25" font-weight="600" fill="#1b1c21">SGD 61,500 per year</text><text x="592" y="152" font-family="ui-monospace,'Cascadia Code','SF Mono',Menlo,Consolas,monospace" font-size="12.5" font-weight="400" fill="#6c7280">“an annual licence fee of SGD 61,500”</text><text x="592" y="174" font-family="ui-monospace,'Cascadia Code','SF Mono',Menlo,Consolas,monospace" font-size="10.5" font-weight="400" fill="#9aa0ab">p.2  rect 118,540 → 402,556</text><circle cx="574" cy="88" r="7.5" fill="#0f7a63"/><path d="M 570.55 88 l 2.5875000000000004 2.7600000000000002 l 4.3125 -5.5200000000000005" fill="none" stroke="#fff" stroke-width="1.9" stroke-linecap="round" stroke-linejoin="round"/><text x="1136" y="92" font-family="ui-sans-serif,-apple-system,BlinkMacSystemFont,'Segoe UI',Roboto,'Helvetica Neue',sans-serif" font-size="10.5" font-weight="600" fill="#0f7a63" text-anchor="end" letter-spacing="0.4">verified by 2 reviewers</text><line x1="566" y1="216" x2="1136" y2="216" stroke="#e2e4e9" stroke-width="1"/><text x="592" y="238" font-family="ui-sans-serif,-apple-system,BlinkMacSystemFont,'Segoe UI',Roboto,'Helvetica Neue',sans-serif" font-size="9.5" font-weight="600" fill="#6c7280" letter-spacing="1.3">GOVERNING LAW</text><text x="592" y="270" font-family="ui-sans-serif,-apple-system,BlinkMacSystemFont,'Segoe UI',Roboto,'Helvetica Neue',sans-serif" font-size="25" font-weight="600" fill="#1b1c21">Laws of Singapore</text><text x="592" y="298" font-family="ui-monospace,'Cascadia Code','SF Mono',Menlo,Consolas,monospace" font-size="12.5" font-weight="400" fill="#6c7280">“governed by the laws of Singapore”</text><text x="592" y="320" font-family="ui-monospace,'Cascadia Code','SF Mono',Menlo,Consolas,monospace" font-size="10.5" font-weight="400" fill="#9aa0ab">p.2  rect 118,806 → 389,822</text><circle cx="574" cy="234" r="5.5" fill="#a96a05"/><text x="1136" y="238" font-family="ui-sans-serif,-apple-system,BlinkMacSystemFont,'Segoe UI',Roboto,'Helvetica Neue',sans-serif" font-size="10.5" font-weight="600" fill="#a96a05" text-anchor="end" letter-spacing="0.4">awaiting review</text><line x1="566" y1="362" x2="1136" y2="362" stroke="#e2e4e9" stroke-width="1"/><text x="592" y="384" font-family="ui-sans-serif,-apple-system,BlinkMacSystemFont,'Segoe UI',Roboto,'Helvetica Neue',sans-serif" font-size="9.5" font-weight="600" fill="#6c7280" letter-spacing="1.3">MINIMUM COMMITMENT</text><text x="592" y="416" font-family="ui-sans-serif,-apple-system,BlinkMacSystemFont,'Segoe UI',Roboto,'Helvetica Neue',sans-serif" font-size="25" font-weight="400" fill="#9aa0ab">Not Stated</text><text x="592" y="444" font-family="ui-sans-serif,-apple-system,BlinkMacSystemFont,'Segoe UI',Roboto,'Helvetica Neue',sans-serif" font-size="12.5" font-weight="400" fill="#9aa0ab">no clause says otherwise, so nothing is anchored</text><circle cx="574" cy="380" r="5.5" fill="none" stroke="#9aa0ab" stroke-width="1.4"/><text x="1136" y="384" font-family="ui-sans-serif,-apple-system,BlinkMacSystemFont,'Segoe UI',Roboto,'Helvetica Neue',sans-serif" font-size="10.5" font-weight="600" fill="#9aa0ab" text-anchor="end" letter-spacing="0.4">abstained</text><path d="M 376 222 C 466.0 222, 466.0 114, 556 114" fill="none" stroke="#a96a05" stroke-width="1.6" opacity="0.85" stroke-linecap="round"/><circle cx="376" cy="222" r="3.4" fill="#a96a05"/><circle cx="556" cy="114" r="3.4" fill="#a96a05"/><path d="M 376 394 C 466.0 394, 466.0 260, 556 260" fill="none" stroke="#a96a05" stroke-width="1.6" opacity="0.85" stroke-linecap="round"/><circle cx="376" cy="394" r="3.4" fill="#a96a05"/><circle cx="556" cy="260" r="3.4" fill="#a96a05"/></svg>
